<svg xmlns="http://www.w3.org/2000/svg" width="753" height="149" viewBox="0 0 753 149">
<rect width="753" height="149" rx="6" fill="#0d1117"/>
<style>text { font-family: -apple-system, BlinkMacSystemFont, "Segoe UI", Helvetica, Arial, sans-serif; fill: #8b949e; font-size: 9px; }</style>
<text x="28" y="11" font-size="9">13 exercises in the last year</text>
<text x="28" y="26">Mar</text>
<text x="80" y="26">Apr</text>
<text x="132" y="26">May</text>
<text x="184" y="26">Jun</text>
<text x="249" y="26">Jul</text>
<text x="301" y="26">Aug</text>
<text x="366" y="26">Sep</text>
<text x="418" y="26">Oct</text>
<text x="470" y="26">Nov</text>
<text x="535" y="26">Dec</text>
<text x="587" y="26">Jan</text>
<text x="639" y="26">Feb</text>
<text x="691" y="26">Mar</text>
<text x="0" y="53" dominant-baseline="middle">Mon</text>
<text x="0" y="79" dominant-baseline="middle">Wed</text>
<text x="0" y="105" dominant-baseline="middle">Fri</text>
<rect x="28" y="30" width="11" height="11" rx="2" fill="#330b0b"><title>2025-03-09: 0/4</title></rect>
<rect x="28" y="43" width="11" height="11" rx="2" fill="#330b0b"><title>2025-03-10: 0/4</title></rect>
<rect x="28" y="56" width="11" height="11" rx="2" fill="#330b0b"><title>2025-03-11: 0/4</title></rect>
<rect x="28" y="69" width="11" height="11" rx="2" fill="#330b0b"><title>2025-03-12: 0/4</title></rect>
<rect x="28" y="82" width="11" height="11" rx="2" fill="#330b0b"><title>2025-03-13: 0/4</title></rect>
<rect x="28" y="95" width="11" height="11" rx="2" fill="#330b0b"><title>2025-03-14: 0/4</title></rect>
<rect x="28" y="108" width="11" height="11" rx="2" fill="#330b0b"><title>2025-03-15: 0/4</title></rect>
<rect x="41" y="30" width="11" height="11" rx="2" fill="#330b0b"><title>2025-03-16: 0/4</title></rect>
<rect x="41" y="43" width="11" height="11" rx="2" fill="#330b0b"><title>2025-03-17: 0/4</title></rect>
<rect x="41" y="56" width="11" height="11" rx="2" fill="#330b0b"><title>2025-03-18: 0/4</title></rect>
<rect x="41" y="69" width="11" height="11" rx="2" fill="#330b0b"><title>2025-03-19: 0/4</title></rect>
<rect x="41" y="82" width="11" height="11" rx="2" fill="#330b0b"><title>2025-03-20: 0/4</title></rect>
<rect x="41" y="95" width="11" height="11" rx="2" fill="#330b0b"><title>2025-03-21: 0/4</title></rect>
<rect x="41" y="108" width="11" height="11" rx="2" fill="#330b0b"><title>2025-03-22: 0/4</title></rect>
<rect x="54" y="30" width="11" height="11" rx="2" fill="#330b0b"><title>2025-03-23: 0/4</title></rect>
<rect x="54" y="43" width="11" height="11" rx="2" fill="#330b0b"><title>2025-03-24: 0/4</title></rect>
<rect x="54" y="56" width="11" height="11" rx="2" fill="#330b0b"><title>2025-03-25: 0/4</title></rect>
<rect x="54" y="69" width="11" height="11" rx="2" fill="#330b0b"><title>2025-03-26: 0/4</title></rect>
<rect x="54" y="82" width="11" height="11" rx="2" fill="#330b0b"><title>2025-03-27: 0/4</title></rect>
<rect x="54" y="95" width="11" height="11" rx="2" fill="#330b0b"><title>2025-03-28: 0/4</title></rect>
<rect x="54" y="108" width="11" height="11" rx="2" fill="#330b0b"><title>2025-03-29: 0/4</title></rect>
<rect x="67" y="30" width="11" height="11" rx="2" fill="#330b0b"><title>2025-03-30: 0/4</title></rect>
<rect x="67" y="43" width="11" height="11" rx="2" fill="#330b0b"><title>2025-03-31: 0/4</title></rect>
<rect x="67" y="56" width="11" height="11" rx="2" fill="#330b0b"><title>2025-04-01: 0/4</title></rect>
<rect x="67" y="69" width="11" height="11" rx="2" fill="#330b0b"><title>2025-04-02: 0/4</title></rect>
<rect x="67" y="82" width="11" height="11" rx="2" fill="#330b0b"><title>2025-04-03: 0/4</title></rect>
<rect x="67" y="95" width="11" height="11" rx="2" fill="#330b0b"><title>2025-04-04: 0/4</title></rect>
<rect x="67" y="108" width="11" height="11" rx="2" fill="#330b0b"><title>2025-04-05: 0/4</title></rect>
<rect x="80" y="30" width="11" height="11" rx="2" fill="#330b0b"><title>2025-04-06: 0/4</title></rect>
<rect x="80" y="43" width="11" height="11" rx="2" fill="#330b0b"><title>2025-04-07: 0/4</title></rect>
<rect x="80" y="56" width="11" height="11" rx="2" fill="#330b0b"><title>2025-04-08: 0/4</title></rect>
<rect x="80" y="69" width="11" height="11" rx="2" fill="#330b0b"><title>2025-04-09: 0/4</title></rect>
<rect x="80" y="82" width="11" height="11" rx="2" fill="#330b0b"><title>2025-04-10: 0/4</title></rect>
<rect x="80" y="95" width="11" height="11" rx="2" fill="#330b0b"><title>2025-04-11: 0/4</title></rect>
<rect x="80" y="108" width="11" height="11" rx="2" fill="#330b0b"><title>2025-04-12: 0/4</title></rect>
<rect x="93" y="30" width="11" height="11" rx="2" fill="#330b0b"><title>2025-04-13: 0/4</title></rect>
<rect x="93" y="43" width="11" height="11" rx="2" fill="#330b0b"><title>2025-04-14: 0/4</title></rect>
<rect x="93" y="56" width="11" height="11" rx="2" fill="#330b0b"><title>2025-04-15: 0/4</title></rect>
<rect x="93" y="69" width="11" height="11" rx="2" fill="#330b0b"><title>2025-04-16: 0/4</title></rect>
<rect x="93" y="82" width="11" height="11" rx="2" fill="#330b0b"><title>2025-04-17: 0/4</title></rect>
<rect x="93" y="95" width="11" height="11" rx="2" fill="#330b0b"><title>2025-04-18: 0/4</title></rect>
<rect x="93" y="108" width="11" height="11" rx="2" fill="#330b0b"><title>2025-04-19: 0/4</title></rect>
<rect x="106" y="30" width="11" height="11" rx="2" fill="#330b0b"><title>2025-04-20: 0/4</title></rect>
<rect x="106" y="43" width="11" height="11" rx="2" fill="#330b0b"><title>2025-04-21: 0/4</title></rect>
<rect x="106" y="56" width="11" height="11" rx="2" fill="#330b0b"><title>2025-04-22: 0/4</title></rect>
<rect x="106" y="69" width="11" height="11" rx="2" fill="#330b0b"><title>2025-04-23: 0/4</title></rect>
<rect x="106" y="82" width="11" height="11" rx="2" fill="#330b0b"><title>2025-04-24: 0/4</title></rect>
<rect x="106" y="95" width="11" height="11" rx="2" fill="#330b0b"><title>2025-04-25: 0/4</title></rect>
<rect x="106" y="108" width="11" height="11" rx="2" fill="#330b0b"><title>2025-04-26: 0/4</title></rect>
<rect x="119" y="30" width="11" height="11" rx="2" fill="#330b0b"><title>2025-04-27: 0/4</title></rect>
<rect x="119" y="43" width="11" height="11" rx="2" fill="#330b0b"><title>2025-04-28: 0/4</title></rect>
<rect x="119" y="56" width="11" height="11" rx="2" fill="#330b0b"><title>2025-04-29: 0/4</title></rect>
<rect x="119" y="69" width="11" height="11" rx="2" fill="#330b0b"><title>2025-04-30: 0/4</title></rect>
<rect x="119" y="82" width="11" height="11" rx="2" fill="#330b0b"><title>2025-05-01: 0/4</title></rect>
<rect x="119" y="95" width="11" height="11" rx="2" fill="#330b0b"><title>2025-05-02: 0/4</title></rect>
<rect x="119" y="108" width="11" height="11" rx="2" fill="#330b0b"><title>2025-05-03: 0/4</title></rect>
<rect x="132" y="30" width="11" height="11" rx="2" fill="#330b0b"><title>2025-05-04: 0/4</title></rect>
<rect x="132" y="43" width="11" height="11" rx="2" fill="#330b0b"><title>2025-05-05: 0/4</title></rect>
<rect x="132" y="56" width="11" height="11" rx="2" fill="#330b0b"><title>2025-05-06: 0/4</title></rect>
<rect x="132" y="69" width="11" height="11" rx="2" fill="#330b0b"><title>2025-05-07: 0/4</title></rect>
<rect x="132" y="82" width="11" height="11" rx="2" fill="#330b0b"><title>2025-05-08: 0/4</title></rect>
<rect x="132" y="95" width="11" height="11" rx="2" fill="#330b0b"><title>2025-05-09: 0/4</title></rect>
<rect x="132" y="108" width="11" height="11" rx="2" fill="#330b0b"><title>2025-05-10: 0/4</title></rect>
<rect x="145" y="30" width="11" height="11" rx="2" fill="#330b0b"><title>2025-05-11: 0/4</title></rect>
<rect x="145" y="43" width="11" height="11" rx="2" fill="#330b0b"><title>2025-05-12: 0/4</title></rect>
<rect x="145" y="56" width="11" height="11" rx="2" fill="#330b0b"><title>2025-05-13: 0/4</title></rect>
<rect x="145" y="69" width="11" height="11" rx="2" fill="#330b0b"><title>2025-05-14: 0/4</title></rect>
<rect x="145" y="82" width="11" height="11" rx="2" fill="#330b0b"><title>2025-05-15: 0/4</title></rect>
<rect x="145" y="95" width="11" height="11" rx="2" fill="#330b0b"><title>2025-05-16: 0/4</title></rect>
<rect x="145" y="108" width="11" height="11" rx="2" fill="#330b0b"><title>2025-05-17: 0/4</title></rect>
<rect x="158" y="30" width="11" height="11" rx="2" fill="#330b0b"><title>2025-05-18: 0/4</title></rect>
<rect x="158" y="43" width="11" height="11" rx="2" fill="#330b0b"><title>2025-05-19: 0/4</title></rect>
<rect x="158" y="56" width="11" height="11" rx="2" fill="#330b0b"><title>2025-05-20: 0/4</title></rect>
<rect x="158" y="69" width="11" height="11" rx="2" fill="#330b0b"><title>2025-05-21: 0/4</title></rect>
<rect x="158" y="82" width="11" height="11" rx="2" fill="#330b0b"><title>2025-05-22: 0/4</title></rect>
<rect x="158" y="95" width="11" height="11" rx="2" fill="#330b0b"><title>2025-05-23: 0/4</title></rect>
<rect x="158" y="108" width="11" height="11" rx="2" fill="#330b0b"><title>2025-05-24: 0/4</title></rect>
<rect x="171" y="30" width="11" height="11" rx="2" fill="#330b0b"><title>2025-05-25: 0/4</title></rect>
<rect x="171" y="43" width="11" height="11" rx="2" fill="#330b0b"><title>2025-05-26: 0/4</title></rect>
<rect x="171" y="56" width="11" height="11" rx="2" fill="#330b0b"><title>2025-05-27: 0/4</title></rect>
<rect x="171" y="69" width="11" height="11" rx="2" fill="#330b0b"><title>2025-05-28: 0/4</title></rect>
<rect x="171" y="82" width="11" height="11" rx="2" fill="#330b0b"><title>2025-05-29: 0/4</title></rect>
<rect x="171" y="95" width="11" height="11" rx="2" fill="#330b0b"><title>2025-05-30: 0/4</title></rect>
<rect x="171" y="108" width="11" height="11" rx="2" fill="#330b0b"><title>2025-05-31: 0/4</title></rect>
<rect x="184" y="30" width="11" height="11" rx="2" fill="#330b0b"><title>2025-06-01: 0/4</title></rect>
<rect x="184" y="43" width="11" height="11" rx="2" fill="#330b0b"><title>2025-06-02: 0/4</title></rect>
<rect x="184" y="56" width="11" height="11" rx="2" fill="#330b0b"><title>2025-06-03: 0/4</title></rect>
<rect x="184" y="69" width="11" height="11" rx="2" fill="#330b0b"><title>2025-06-04: 0/4</title></rect>
<rect x="184" y="82" width="11" height="11" rx="2" fill="#330b0b"><title>2025-06-05: 0/4</title></rect>
<rect x="184" y="95" width="11" height="11" rx="2" fill="#330b0b"><title>2025-06-06: 0/4</title></rect>
<rect x="184" y="108" width="11" height="11" rx="2" fill="#330b0b"><title>2025-06-07: 0/4</title></rect>
<rect x="197" y="30" width="11" height="11" rx="2" fill="#330b0b"><title>2025-06-08: 0/4</title></rect>
<rect x="197" y="43" width="11" height="11" rx="2" fill="#330b0b"><title>2025-06-09: 0/4</title></rect>
<rect x="197" y="56" width="11" height="11" rx="2" fill="#330b0b"><title>2025-06-10: 0/4</title></rect>
<rect x="197" y="69" width="11" height="11" rx="2" fill="#330b0b"><title>2025-06-11: 0/4</title></rect>
<rect x="197" y="82" width="11" height="11" rx="2" fill="#330b0b"><title>2025-06-12: 0/4</title></rect>
<rect x="197" y="95" width="11" height="11" rx="2" fill="#330b0b"><title>2025-06-13: 0/4</title></rect>
<rect x="197" y="108" width="11" height="11" rx="2" fill="#330b0b"><title>2025-06-14: 0/4</title></rect>
<rect x="210" y="30" width="11" height="11" rx="2" fill="#330b0b"><title>2025-06-15: 0/4</title></rect>
<rect x="210" y="43" width="11" height="11" rx="2" fill="#330b0b"><title>2025-06-16: 0/4</title></rect>
<rect x="210" y="56" width="11" height="11" rx="2" fill="#330b0b"><title>2025-06-17: 0/4</title></rect>
<rect x="210" y="69" width="11" height="11" rx="2" fill="#330b0b"><title>2025-06-18: 0/4</title></rect>
<rect x="210" y="82" width="11" height="11" rx="2" fill="#330b0b"><title>2025-06-19: 0/4</title></rect>
<rect x="210" y="95" width="11" height="11" rx="2" fill="#330b0b"><title>2025-06-20: 0/4</title></rect>
<rect x="210" y="108" width="11" height="11" rx="2" fill="#330b0b"><title>2025-06-21: 0/4</title></rect>
<rect x="223" y="30" width="11" height="11" rx="2" fill="#330b0b"><title>2025-06-22: 0/4</title></rect>
<rect x="223" y="43" width="11" height="11" rx="2" fill="#330b0b"><title>2025-06-23: 0/4</title></rect>
<rect x="223" y="56" width="11" height="11" rx="2" fill="#330b0b"><title>2025-06-24: 0/4</title></rect>
<rect x="223" y="69" width="11" height="11" rx="2" fill="#330b0b"><title>2025-06-25: 0/4</title></rect>
<rect x="223" y="82" width="11" height="11" rx="2" fill="#330b0b"><title>2025-06-26: 0/4</title></rect>
<rect x="223" y="95" width="11" height="11" rx="2" fill="#330b0b"><title>2025-06-27: 0/4</title></rect>
<rect x="223" y="108" width="11" height="11" rx="2" fill="#330b0b"><title>2025-06-28: 0/4</title></rect>
<rect x="236" y="30" width="11" height="11" rx="2" fill="#330b0b"><title>2025-06-29: 0/4</title></rect>
<rect x="236" y="43" width="11" height="11" rx="2" fill="#330b0b"><title>2025-06-30: 0/4</title></rect>
<rect x="236" y="56" width="11" height="11" rx="2" fill="#330b0b"><title>2025-07-01: 0/4</title></rect>
<rect x="236" y="69" width="11" height="11" rx="2" fill="#330b0b"><title>2025-07-02: 0/4</title></rect>
<rect x="236" y="82" width="11" height="11" rx="2" fill="#330b0b"><title>2025-07-03: 0/4</title></rect>
<rect x="236" y="95" width="11" height="11" rx="2" fill="#330b0b"><title>2025-07-04: 0/4</title></rect>
<rect x="236" y="108" width="11" height="11" rx="2" fill="#330b0b"><title>2025-07-05: 0/4</title></rect>
<rect x="249" y="30" width="11" height="11" rx="2" fill="#330b0b"><title>2025-07-06: 0/4</title></rect>
<rect x="249" y="43" width="11" height="11" rx="2" fill="#330b0b"><title>2025-07-07: 0/4</title></rect>
<rect x="249" y="56" width="11" height="11" rx="2" fill="#330b0b"><title>2025-07-08: 0/4</title></rect>
<rect x="249" y="69" width="11" height="11" rx="2" fill="#330b0b"><title>2025-07-09: 0/4</title></rect>
<rect x="249" y="82" width="11" height="11" rx="2" fill="#330b0b"><title>2025-07-10: 0/4</title></rect>
<rect x="249" y="95" width="11" height="11" rx="2" fill="#330b0b"><title>2025-07-11: 0/4</title></rect>
<rect x="249" y="108" width="11" height="11" rx="2" fill="#330b0b"><title>2025-07-12: 0/4</title></rect>
<rect x="262" y="30" width="11" height="11" rx="2" fill="#330b0b"><title>2025-07-13: 0/4</title></rect>
<rect x="262" y="43" width="11" height="11" rx="2" fill="#330b0b"><title>2025-07-14: 0/4</title></rect>
<rect x="262" y="56" width="11" height="11" rx="2" fill="#330b0b"><title>2025-07-15: 0/4</title></rect>
<rect x="262" y="69" width="11" height="11" rx="2" fill="#330b0b"><title>2025-07-16: 0/4</title></rect>
<rect x="262" y="82" width="11" height="11" rx="2" fill="#330b0b"><title>2025-07-17: 0/4</title></rect>
<rect x="262" y="95" width="11" height="11" rx="2" fill="#330b0b"><title>2025-07-18: 0/4</title></rect>
<rect x="262" y="108" width="11" height="11" rx="2" fill="#330b0b"><title>2025-07-19: 0/4</title></rect>
<rect x="275" y="30" width="11" height="11" rx="2" fill="#330b0b"><title>2025-07-20: 0/4</title></rect>
<rect x="275" y="43" width="11" height="11" rx="2" fill="#330b0b"><title>2025-07-21: 0/4</title></rect>
<rect x="275" y="56" width="11" height="11" rx="2" fill="#330b0b"><title>2025-07-22: 0/4</title></rect>
<rect x="275" y="69" width="11" height="11" rx="2" fill="#330b0b"><title>2025-07-23: 0/4</title></rect>
<rect x="275" y="82" width="11" height="11" rx="2" fill="#330b0b"><title>2025-07-24: 0/4</title></rect>
<rect x="275" y="95" width="11" height="11" rx="2" fill="#330b0b"><title>2025-07-25: 0/4</title></rect>
<rect x="275" y="108" width="11" height="11" rx="2" fill="#330b0b"><title>2025-07-26: 0/4</title></rect>
<rect x="288" y="30" width="11" height="11" rx="2" fill="#330b0b"><title>2025-07-27: 0/4</title></rect>
<rect x="288" y="43" width="11" height="11" rx="2" fill="#330b0b"><title>2025-07-28: 0/4</title></rect>
<rect x="288" y="56" width="11" height="11" rx="2" fill="#330b0b"><title>2025-07-29: 0/4</title></rect>
<rect x="288" y="69" width="11" height="11" rx="2" fill="#330b0b"><title>2025-07-30: 0/4</title></rect>
<rect x="288" y="82" width="11" height="11" rx="2" fill="#330b0b"><title>2025-07-31: 0/4</title></rect>
<rect x="288" y="95" width="11" height="11" rx="2" fill="#330b0b"><title>2025-08-01: 0/4</title></rect>
<rect x="288" y="108" width="11" height="11" rx="2" fill="#330b0b"><title>2025-08-02: 0/4</title></rect>
<rect x="301" y="30" width="11" height="11" rx="2" fill="#330b0b"><title>2025-08-03: 0/4</title></rect>
<rect x="301" y="43" width="11" height="11" rx="2" fill="#330b0b"><title>2025-08-04: 0/4</title></rect>
<rect x="301" y="56" width="11" height="11" rx="2" fill="#330b0b"><title>2025-08-05: 0/4</title></rect>
<rect x="301" y="69" width="11" height="11" rx="2" fill="#330b0b"><title>2025-08-06: 0/4</title></rect>
<rect x="301" y="82" width="11" height="11" rx="2" fill="#330b0b"><title>2025-08-07: 0/4</title></rect>
<rect x="301" y="95" width="11" height="11" rx="2" fill="#330b0b"><title>2025-08-08: 0/4</title></rect>
<rect x="301" y="108" width="11" height="11" rx="2" fill="#330b0b"><title>2025-08-09: 0/4</title></rect>
<rect x="314" y="30" width="11" height="11" rx="2" fill="#330b0b"><title>2025-08-10: 0/4</title></rect>
<rect x="314" y="43" width="11" height="11" rx="2" fill="#330b0b"><title>2025-08-11: 0/4</title></rect>
<rect x="314" y="56" width="11" height="11" rx="2" fill="#330b0b"><title>2025-08-12: 0/4</title></rect>
<rect x="314" y="69" width="11" height="11" rx="2" fill="#330b0b"><title>2025-08-13: 0/4</title></rect>
<rect x="314" y="82" width="11" height="11" rx="2" fill="#330b0b"><title>2025-08-14: 0/4</title></rect>
<rect x="314" y="95" width="11" height="11" rx="2" fill="#330b0b"><title>2025-08-15: 0/4</title></rect>
<rect x="314" y="108" width="11" height="11" rx="2" fill="#330b0b"><title>2025-08-16: 0/4</title></rect>
<rect x="327" y="30" width="11" height="11" rx="2" fill="#330b0b"><title>2025-08-17: 0/4</title></rect>
<rect x="327" y="43" width="11" height="11" rx="2" fill="#330b0b"><title>2025-08-18: 0/4</title></rect>
<rect x="327" y="56" width="11" height="11" rx="2" fill="#330b0b"><title>2025-08-19: 0/4</title></rect>
<rect x="327" y="69" width="11" height="11" rx="2" fill="#330b0b"><title>2025-08-20: 0/4</title></rect>
<rect x="327" y="82" width="11" height="11" rx="2" fill="#330b0b"><title>2025-08-21: 0/4</title></rect>
<rect x="327" y="95" width="11" height="11" rx="2" fill="#330b0b"><title>2025-08-22: 0/4</title></rect>
<rect x="327" y="108" width="11" height="11" rx="2" fill="#330b0b"><title>2025-08-23: 0/4</title></rect>
<rect x="340" y="30" width="11" height="11" rx="2" fill="#330b0b"><title>2025-08-24: 0/4</title></rect>
<rect x="340" y="43" width="11" height="11" rx="2" fill="#330b0b"><title>2025-08-25: 0/4</title></rect>
<rect x="340" y="56" width="11" height="11" rx="2" fill="#330b0b"><title>2025-08-26: 0/4</title></rect>
<rect x="340" y="69" width="11" height="11" rx="2" fill="#330b0b"><title>2025-08-27: 0/4</title></rect>
<rect x="340" y="82" width="11" height="11" rx="2" fill="#330b0b"><title>2025-08-28: 0/4</title></rect>
<rect x="340" y="95" width="11" height="11" rx="2" fill="#330b0b"><title>2025-08-29: 0/4</title></rect>
<rect x="340" y="108" width="11" height="11" rx="2" fill="#330b0b"><title>2025-08-30: 0/4</title></rect>
<rect x="353" y="30" width="11" height="11" rx="2" fill="#330b0b"><title>2025-08-31: 0/4</title></rect>
<rect x="353" y="43" width="11" height="11" rx="2" fill="#330b0b"><title>2025-09-01: 0/4</title></rect>
<rect x="353" y="56" width="11" height="11" rx="2" fill="#330b0b"><title>2025-09-02: 0/4</title></rect>
<rect x="353" y="69" width="11" height="11" rx="2" fill="#330b0b"><title>2025-09-03: 0/4</title></rect>
<rect x="353" y="82" width="11" height="11" rx="2" fill="#330b0b"><title>2025-09-04: 0/4</title></rect>
<rect x="353" y="95" width="11" height="11" rx="2" fill="#330b0b"><title>2025-09-05: 0/4</title></rect>
<rect x="353" y="108" width="11" height="11" rx="2" fill="#330b0b"><title>2025-09-06: 0/4</title></rect>
<rect x="366" y="30" width="11" height="11" rx="2" fill="#330b0b"><title>2025-09-07: 0/4</title></rect>
<rect x="366" y="43" width="11" height="11" rx="2" fill="#330b0b"><title>2025-09-08: 0/4</title></rect>
<rect x="366" y="56" width="11" height="11" rx="2" fill="#330b0b"><title>2025-09-09: 0/4</title></rect>
<rect x="366" y="69" width="11" height="11" rx="2" fill="#330b0b"><title>2025-09-10: 0/4</title></rect>
<rect x="366" y="82" width="11" height="11" rx="2" fill="#330b0b"><title>2025-09-11: 0/4</title></rect>
<rect x="366" y="95" width="11" height="11" rx="2" fill="#330b0b"><title>2025-09-12: 0/4</title></rect>
<rect x="366" y="108" width="11" height="11" rx="2" fill="#330b0b"><title>2025-09-13: 0/4</title></rect>
<rect x="379" y="30" width="11" height="11" rx="2" fill="#330b0b"><title>2025-09-14: 0/4</title></rect>
<rect x="379" y="43" width="11" height="11" rx="2" fill="#330b0b"><title>2025-09-15: 0/4</title></rect>
<rect x="379" y="56" width="11" height="11" rx="2" fill="#330b0b"><title>2025-09-16: 0/4</title></rect>
<rect x="379" y="69" width="11" height="11" rx="2" fill="#330b0b"><title>2025-09-17: 0/4</title></rect>
<rect x="379" y="82" width="11" height="11" rx="2" fill="#330b0b"><title>2025-09-18: 0/4</title></rect>
<rect x="379" y="95" width="11" height="11" rx="2" fill="#330b0b"><title>2025-09-19: 0/4</title></rect>
<rect x="379" y="108" width="11" height="11" rx="2" fill="#330b0b"><title>2025-09-20: 0/4</title></rect>
<rect x="392" y="30" width="11" height="11" rx="2" fill="#330b0b"><title>2025-09-21: 0/4</title></rect>
<rect x="392" y="43" width="11" height="11" rx="2" fill="#330b0b"><title>2025-09-22: 0/4</title></rect>
<rect x="392" y="56" width="11" height="11" rx="2" fill="#330b0b"><title>2025-09-23: 0/4</title></rect>
<rect x="392" y="69" width="11" height="11" rx="2" fill="#330b0b"><title>2025-09-24: 0/4</title></rect>
<rect x="392" y="82" width="11" height="11" rx="2" fill="#330b0b"><title>2025-09-25: 0/4</title></rect>
<rect x="392" y="95" width="11" height="11" rx="2" fill="#330b0b"><title>2025-09-26: 0/4</title></rect>
<rect x="392" y="108" width="11" height="11" rx="2" fill="#330b0b"><title>2025-09-27: 0/4</title></rect>
<rect x="405" y="30" width="11" height="11" rx="2" fill="#330b0b"><title>2025-09-28: 0/4</title></rect>
<rect x="405" y="43" width="11" height="11" rx="2" fill="#330b0b"><title>2025-09-29: 0/4</title></rect>
<rect x="405" y="56" width="11" height="11" rx="2" fill="#330b0b"><title>2025-09-30: 0/4</title></rect>
<rect x="405" y="69" width="11" height="11" rx="2" fill="#330b0b"><title>2025-10-01: 0/4</title></rect>
<rect x="405" y="82" width="11" height="11" rx="2" fill="#330b0b"><title>2025-10-02: 0/4</title></rect>
<rect x="405" y="95" width="11" height="11" rx="2" fill="#330b0b"><title>2025-10-03: 0/4</title></rect>
<rect x="405" y="108" width="11" height="11" rx="2" fill="#330b0b"><title>2025-10-04: 0/4</title></rect>
<rect x="418" y="30" width="11" height="11" rx="2" fill="#330b0b"><title>2025-10-05: 0/4</title></rect>
<rect x="418" y="43" width="11" height="11" rx="2" fill="#330b0b"><title>2025-10-06: 0/4</title></rect>
<rect x="418" y="56" width="11" height="11" rx="2" fill="#330b0b"><title>2025-10-07: 0/4</title></rect>
<rect x="418" y="69" width="11" height="11" rx="2" fill="#330b0b"><title>2025-10-08: 0/4</title></rect>
<rect x="418" y="82" width="11" height="11" rx="2" fill="#330b0b"><title>2025-10-09: 0/4</title></rect>
<rect x="418" y="95" width="11" height="11" rx="2" fill="#330b0b"><title>2025-10-10: 0/4</title></rect>
<rect x="418" y="108" width="11" height="11" rx="2" fill="#330b0b"><title>2025-10-11: 0/4</title></rect>
<rect x="431" y="30" width="11" height="11" rx="2" fill="#330b0b"><title>2025-10-12: 0/4</title></rect>
<rect x="431" y="43" width="11" height="11" rx="2" fill="#330b0b"><title>2025-10-13: 0/4</title></rect>
<rect x="431" y="56" width="11" height="11" rx="2" fill="#330b0b"><title>2025-10-14: 0/4</title></rect>
<rect x="431" y="69" width="11" height="11" rx="2" fill="#330b0b"><title>2025-10-15: 0/4</title></rect>
<rect x="431" y="82" width="11" height="11" rx="2" fill="#330b0b"><title>2025-10-16: 0/4</title></rect>
<rect x="431" y="95" width="11" height="11" rx="2" fill="#330b0b"><title>2025-10-17: 0/4</title></rect>
<rect x="431" y="108" width="11" height="11" rx="2" fill="#330b0b"><title>2025-10-18: 0/4</title></rect>
<rect x="444" y="30" width="11" height="11" rx="2" fill="#330b0b"><title>2025-10-19: 0/4</title></rect>
<rect x="444" y="43" width="11" height="11" rx="2" fill="#330b0b"><title>2025-10-20: 0/4</title></rect>
<rect x="444" y="56" width="11" height="11" rx="2" fill="#330b0b"><title>2025-10-21: 0/4</title></rect>
<rect x="444" y="69" width="11" height="11" rx="2" fill="#330b0b"><title>2025-10-22: 0/4</title></rect>
<rect x="444" y="82" width="11" height="11" rx="2" fill="#330b0b"><title>2025-10-23: 0/4</title></rect>
<rect x="444" y="95" width="11" height="11" rx="2" fill="#330b0b"><title>2025-10-24: 0/4</title></rect>
<rect x="444" y="108" width="11" height="11" rx="2" fill="#330b0b"><title>2025-10-25: 0/4</title></rect>
<rect x="457" y="30" width="11" height="11" rx="2" fill="#330b0b"><title>2025-10-26: 0/4</title></rect>
<rect x="457" y="43" width="11" height="11" rx="2" fill="#330b0b"><title>2025-10-27: 0/4</title></rect>
<rect x="457" y="56" width="11" height="11" rx="2" fill="#330b0b"><title>2025-10-28: 0/4</title></rect>
<rect x="457" y="69" width="11" height="11" rx="2" fill="#330b0b"><title>2025-10-29: 0/4</title></rect>
<rect x="457" y="82" width="11" height="11" rx="2" fill="#330b0b"><title>2025-10-30: 0/4</title></rect>
<rect x="457" y="95" width="11" height="11" rx="2" fill="#330b0b"><title>2025-10-31: 0/4</title></rect>
<rect x="457" y="108" width="11" height="11" rx="2" fill="#330b0b"><title>2025-11-01: 0/4</title></rect>
<rect x="470" y="30" width="11" height="11" rx="2" fill="#330b0b"><title>2025-11-02: 0/4</title></rect>
<rect x="470" y="43" width="11" height="11" rx="2" fill="#330b0b"><title>2025-11-03: 0/4</title></rect>
<rect x="470" y="56" width="11" height="11" rx="2" fill="#330b0b"><title>2025-11-04: 0/4</title></rect>
<rect x="470" y="69" width="11" height="11" rx="2" fill="#330b0b"><title>2025-11-05: 0/4</title></rect>
<rect x="470" y="82" width="11" height="11" rx="2" fill="#330b0b"><title>2025-11-06: 0/4</title></rect>
<rect x="470" y="95" width="11" height="11" rx="2" fill="#330b0b"><title>2025-11-07: 0/4</title></rect>
<rect x="470" y="108" width="11" height="11" rx="2" fill="#330b0b"><title>2025-11-08: 0/4</title></rect>
<rect x="483" y="30" width="11" height="11" rx="2" fill="#330b0b"><title>2025-11-09: 0/4</title></rect>
<rect x="483" y="43" width="11" height="11" rx="2" fill="#330b0b"><title>2025-11-10: 0/4</title></rect>
<rect x="483" y="56" width="11" height="11" rx="2" fill="#330b0b"><title>2025-11-11: 0/4</title></rect>
<rect x="483" y="69" width="11" height="11" rx="2" fill="#330b0b"><title>2025-11-12: 0/4</title></rect>
<rect x="483" y="82" width="11" height="11" rx="2" fill="#330b0b"><title>2025-11-13: 0/4</title></rect>
<rect x="483" y="95" width="11" height="11" rx="2" fill="#330b0b"><title>2025-11-14: 0/4</title></rect>
<rect x="483" y="108" width="11" height="11" rx="2" fill="#330b0b"><title>2025-11-15: 0/4</title></rect>
<rect x="496" y="30" width="11" height="11" rx="2" fill="#330b0b"><title>2025-11-16: 0/4</title></rect>
<rect x="496" y="43" width="11" height="11" rx="2" fill="#330b0b"><title>2025-11-17: 0/4</title></rect>
<rect x="496" y="56" width="11" height="11" rx="2" fill="#330b0b"><title>2025-11-18: 0/4</title></rect>
<rect x="496" y="69" width="11" height="11" rx="2" fill="#330b0b"><title>2025-11-19: 0/4</title></rect>
<rect x="496" y="82" width="11" height="11" rx="2" fill="#330b0b"><title>2025-11-20: 0/4</title></rect>
<rect x="496" y="95" width="11" height="11" rx="2" fill="#330b0b"><title>2025-11-21: 0/4</title></rect>
<rect x="496" y="108" width="11" height="11" rx="2" fill="#330b0b"><title>2025-11-22: 0/4</title></rect>
<rect x="509" y="30" width="11" height="11" rx="2" fill="#330b0b"><title>2025-11-23: 0/4</title></rect>
<rect x="509" y="43" width="11" height="11" rx="2" fill="#330b0b"><title>2025-11-24: 0/4</title></rect>
<rect x="509" y="56" width="11" height="11" rx="2" fill="#330b0b"><title>2025-11-25: 0/4</title></rect>
<rect x="509" y="69" width="11" height="11" rx="2" fill="#330b0b"><title>2025-11-26: 0/4</title></rect>
<rect x="509" y="82" width="11" height="11" rx="2" fill="#330b0b"><title>2025-11-27: 0/4</title></rect>
<rect x="509" y="95" width="11" height="11" rx="2" fill="#330b0b"><title>2025-11-28: 0/4</title></rect>
<rect x="509" y="108" width="11" height="11" rx="2" fill="#330b0b"><title>2025-11-29: 0/4</title></rect>
<rect x="522" y="30" width="11" height="11" rx="2" fill="#330b0b"><title>2025-11-30: 0/4</title></rect>
<rect x="522" y="43" width="11" height="11" rx="2" fill="#330b0b"><title>2025-12-01: 0/4</title></rect>
<rect x="522" y="56" width="11" height="11" rx="2" fill="#330b0b"><title>2025-12-02: 0/4</title></rect>
<rect x="522" y="69" width="11" height="11" rx="2" fill="#330b0b"><title>2025-12-03: 0/4</title></rect>
<rect x="522" y="82" width="11" height="11" rx="2" fill="#330b0b"><title>2025-12-04: 0/4</title></rect>
<rect x="522" y="95" width="11" height="11" rx="2" fill="#330b0b"><title>2025-12-05: 0/4</title></rect>
<rect x="522" y="108" width="11" height="11" rx="2" fill="#330b0b"><title>2025-12-06: 0/4</title></rect>
<rect x="535" y="30" width="11" height="11" rx="2" fill="#330b0b"><title>2025-12-07: 0/4</title></rect>
<rect x="535" y="43" width="11" height="11" rx="2" fill="#330b0b"><title>2025-12-08: 0/4</title></rect>
<rect x="535" y="56" width="11" height="11" rx="2" fill="#330b0b"><title>2025-12-09: 0/4</title></rect>
<rect x="535" y="69" width="11" height="11" rx="2" fill="#330b0b"><title>2025-12-10: 0/4</title></rect>
<rect x="535" y="82" width="11" height="11" rx="2" fill="#330b0b"><title>2025-12-11: 0/4</title></rect>
<rect x="535" y="95" width="11" height="11" rx="2" fill="#330b0b"><title>2025-12-12: 0/4</title></rect>
<rect x="535" y="108" width="11" height="11" rx="2" fill="#330b0b"><title>2025-12-13: 0/4</title></rect>
<rect x="548" y="30" width="11" height="11" rx="2" fill="#330b0b"><title>2025-12-14: 0/4</title></rect>
<rect x="548" y="43" width="11" height="11" rx="2" fill="#330b0b"><title>2025-12-15: 0/4</title></rect>
<rect x="548" y="56" width="11" height="11" rx="2" fill="#330b0b"><title>2025-12-16: 0/4</title></rect>
<rect x="548" y="69" width="11" height="11" rx="2" fill="#330b0b"><title>2025-12-17: 0/4</title></rect>
<rect x="548" y="82" width="11" height="11" rx="2" fill="#330b0b"><title>2025-12-18: 0/4</title></rect>
<rect x="548" y="95" width="11" height="11" rx="2" fill="#330b0b"><title>2025-12-19: 0/4</title></rect>
<rect x="548" y="108" width="11" height="11" rx="2" fill="#330b0b"><title>2025-12-20: 0/4</title></rect>
<rect x="561" y="30" width="11" height="11" rx="2" fill="#330b0b"><title>2025-12-21: 0/4</title></rect>
<rect x="561" y="43" width="11" height="11" rx="2" fill="#330b0b"><title>2025-12-22: 0/4</title></rect>
<rect x="561" y="56" width="11" height="11" rx="2" fill="#330b0b"><title>2025-12-23: 0/4</title></rect>
<rect x="561" y="69" width="11" height="11" rx="2" fill="#330b0b"><title>2025-12-24: 0/4</title></rect>
<rect x="561" y="82" width="11" height="11" rx="2" fill="#330b0b"><title>2025-12-25: 0/4</title></rect>
<rect x="561" y="95" width="11" height="11" rx="2" fill="#330b0b"><title>2025-12-26: 0/4</title></rect>
<rect x="561" y="108" width="11" height="11" rx="2" fill="#330b0b"><title>2025-12-27: 0/4</title></rect>
<rect x="574" y="30" width="11" height="11" rx="2" fill="#330b0b"><title>2025-12-28: 0/4</title></rect>
<rect x="574" y="43" width="11" height="11" rx="2" fill="#330b0b"><title>2025-12-29: 0/4</title></rect>
<rect x="574" y="56" width="11" height="11" rx="2" fill="#330b0b"><title>2025-12-30: 0/4</title></rect>
<rect x="574" y="69" width="11" height="11" rx="2" fill="#330b0b"><title>2025-12-31: 0/4</title></rect>
<rect x="574" y="82" width="11" height="11" rx="2" fill="#330b0b"><title>2026-01-01: 0/4</title></rect>
<rect x="574" y="95" width="11" height="11" rx="2" fill="#330b0b"><title>2026-01-02: 0/4</title></rect>
<rect x="574" y="108" width="11" height="11" rx="2" fill="#330b0b"><title>2026-01-03: 0/4</title></rect>
<rect x="587" y="30" width="11" height="11" rx="2" fill="#330b0b"><title>2026-01-04: 0/4</title></rect>
<rect x="587" y="43" width="11" height="11" rx="2" fill="#330b0b"><title>2026-01-05: 0/4</title></rect>
<rect x="587" y="56" width="11" height="11" rx="2" fill="#330b0b"><title>2026-01-06: 0/4</title></rect>
<rect x="587" y="69" width="11" height="11" rx="2" fill="#330b0b"><title>2026-01-07: 0/4</title></rect>
<rect x="587" y="82" width="11" height="11" rx="2" fill="#330b0b"><title>2026-01-08: 0/4</title></rect>
<rect x="587" y="95" width="11" height="11" rx="2" fill="#330b0b"><title>2026-01-09: 0/4</title></rect>
<rect x="587" y="108" width="11" height="11" rx="2" fill="#330b0b"><title>2026-01-10: 0/4</title></rect>
<rect x="600" y="30" width="11" height="11" rx="2" fill="#330b0b"><title>2026-01-11: 0/4</title></rect>
<rect x="600" y="43" width="11" height="11" rx="2" fill="#330b0b"><title>2026-01-12: 0/4</title></rect>
<rect x="600" y="56" width="11" height="11" rx="2" fill="#330b0b"><title>2026-01-13: 0/4</title></rect>
<rect x="600" y="69" width="11" height="11" rx="2" fill="#330b0b"><title>2026-01-14: 0/4</title></rect>
<rect x="600" y="82" width="11" height="11" rx="2" fill="#330b0b"><title>2026-01-15: 0/4</title></rect>
<rect x="600" y="95" width="11" height="11" rx="2" fill="#330b0b"><title>2026-01-16: 0/4</title></rect>
<rect x="600" y="108" width="11" height="11" rx="2" fill="#330b0b"><title>2026-01-17: 0/4</title></rect>
<rect x="613" y="30" width="11" height="11" rx="2" fill="#330b0b"><title>2026-01-18: 0/4</title></rect>
<rect x="613" y="43" width="11" height="11" rx="2" fill="#330b0b"><title>2026-01-19: 0/4</title></rect>
<rect x="613" y="56" width="11" height="11" rx="2" fill="#330b0b"><title>2026-01-20: 0/4</title></rect>
<rect x="613" y="69" width="11" height="11" rx="2" fill="#330b0b"><title>2026-01-21: 0/4</title></rect>
<rect x="613" y="82" width="11" height="11" rx="2" fill="#330b0b"><title>2026-01-22: 0/4</title></rect>
<rect x="613" y="95" width="11" height="11" rx="2" fill="#330b0b"><title>2026-01-23: 0/4</title></rect>
<rect x="613" y="108" width="11" height="11" rx="2" fill="#330b0b"><title>2026-01-24: 0/4</title></rect>
<rect x="626" y="30" width="11" height="11" rx="2" fill="#330b0b"><title>2026-01-25: 0/4</title></rect>
<rect x="626" y="43" width="11" height="11" rx="2" fill="#330b0b"><title>2026-01-26: 0/4</title></rect>
<rect x="626" y="56" width="11" height="11" rx="2" fill="#330b0b"><title>2026-01-27: 0/4</title></rect>
<rect x="626" y="69" width="11" height="11" rx="2" fill="#330b0b"><title>2026-01-28: 0/4</title></rect>
<rect x="626" y="82" width="11" height="11" rx="2" fill="#330b0b"><title>2026-01-29: 0/4</title></rect>
<rect x="626" y="95" width="11" height="11" rx="2" fill="#330b0b"><title>2026-01-30: 0/4</title></rect>
<rect x="626" y="108" width="11" height="11" rx="2" fill="#330b0b"><title>2026-01-31: 0/4</title></rect>
<rect x="639" y="30" width="11" height="11" rx="2" fill="#330b0b"><title>2026-02-01: 0/4</title></rect>
<rect x="639" y="43" width="11" height="11" rx="2" fill="#330b0b"><title>2026-02-02: 0/4</title></rect>
<rect x="639" y="56" width="11" height="11" rx="2" fill="#330b0b"><title>2026-02-03: 0/4</title></rect>
<rect x="639" y="69" width="11" height="11" rx="2" fill="#330b0b"><title>2026-02-04: 0/4</title></rect>
<rect x="639" y="82" width="11" height="11" rx="2" fill="#330b0b"><title>2026-02-05: 0/4</title></rect>
<rect x="639" y="95" width="11" height="11" rx="2" fill="#330b0b"><title>2026-02-06: 0/4</title></rect>
<rect x="639" y="108" width="11" height="11" rx="2" fill="#330b0b"><title>2026-02-07: 0/4</title></rect>
<rect x="652" y="30" width="11" height="11" rx="2" fill="#330b0b"><title>2026-02-08: 0/4</title></rect>
<rect x="652" y="43" width="11" height="11" rx="2" fill="#330b0b"><title>2026-02-09: 0/4</title></rect>
<rect x="652" y="56" width="11" height="11" rx="2" fill="#330b0b"><title>2026-02-10: 0/4</title></rect>
<rect x="652" y="69" width="11" height="11" rx="2" fill="#330b0b"><title>2026-02-11: 0/4</title></rect>
<rect x="652" y="82" width="11" height="11" rx="2" fill="#330b0b"><title>2026-02-12: 0/4</title></rect>
<rect x="652" y="95" width="11" height="11" rx="2" fill="#330b0b"><title>2026-02-13: 0/4</title></rect>
<rect x="652" y="108" width="11" height="11" rx="2" fill="#330b0b"><title>2026-02-14: 0/4</title></rect>
<rect x="665" y="30" width="11" height="11" rx="2" fill="#330b0b"><title>2026-02-15: 0/4</title></rect>
<rect x="665" y="43" width="11" height="11" rx="2" fill="#330b0b"><title>2026-02-16: 0/4</title></rect>
<rect x="665" y="56" width="11" height="11" rx="2" fill="#330b0b"><title>2026-02-17: 0/4</title></rect>
<rect x="665" y="69" width="11" height="11" rx="2" fill="#330b0b"><title>2026-02-18: 0/4</title></rect>
<rect x="665" y="82" width="11" height="11" rx="2" fill="#330b0b"><title>2026-02-19: 0/4</title></rect>
<rect x="665" y="95" width="11" height="11" rx="2" fill="#330b0b"><title>2026-02-20: 0/4</title></rect>
<rect x="665" y="108" width="11" height="11" rx="2" fill="#330b0b"><title>2026-02-21: 0/4</title></rect>
<rect x="678" y="30" width="11" height="11" rx="2" fill="#330b0b"><title>2026-02-22: 0/4</title></rect>
<rect x="678" y="43" width="11" height="11" rx="2" fill="#330b0b"><title>2026-02-23: 0/4</title></rect>
<rect x="678" y="56" width="11" height="11" rx="2" fill="#330b0b"><title>2026-02-24: 0/4</title></rect>
<rect x="678" y="69" width="11" height="11" rx="2" fill="#330b0b"><title>2026-02-25: 0/4</title></rect>
<rect x="678" y="82" width="11" height="11" rx="2" fill="#330b0b"><title>2026-02-26: 0/4</title></rect>
<rect x="678" y="95" width="11" height="11" rx="2" fill="#330b0b"><title>2026-02-27: 0/4</title></rect>
<rect x="678" y="108" width="11" height="11" rx="2" fill="#330b0b"><title>2026-02-28: 0/4</title></rect>
<rect x="691" y="30" width="11" height="11" rx="2" fill="#330b0b"><title>2026-03-01: 0/4</title></rect>
<rect x="691" y="43" width="11" height="11" rx="2" fill="#330b0b"><title>2026-03-02: 0/4</title></rect>
<rect x="691" y="56" width="11" height="11" rx="2" fill="#4e1111"><title>2026-03-03: 1/4</title></rect>
<rect x="691" y="69" width="11" height="11" rx="2" fill="#812222"><title>2026-03-04: 2/4</title></rect>
<rect x="691" y="82" width="11" height="11" rx="2" fill="#812222"><title>2026-03-05: 2/4</title></rect>
<rect x="691" y="95" width="11" height="11" rx="2" fill="#330b0b"><title>2026-03-06: 0/4</title></rect>
<rect x="691" y="108" width="11" height="11" rx="2" fill="#330b0b"><title>2026-03-07: 0/4</title></rect>
<rect x="704" y="30" width="11" height="11" rx="2" fill="#812222"><title>2026-03-08: 2/4</title></rect>
<rect x="704" y="43" width="11" height="11" rx="2" fill="#812222"><title>2026-03-09: 2/4</title></rect>
<rect x="704" y="56" width="11" height="11" rx="2" fill="#812222"><title>2026-03-10: 2/4</title></rect>
<rect x="704" y="69" width="11" height="11" rx="2" fill="#812222"><title>2026-03-11: 2/4</title></rect>
<rect x="704" y="82" width="11" height="11" rx="2" fill="#330b0b"><title>2026-03-12: 0/4</title></rect>
<text x="624" y="139" dominant-baseline="middle">Less</text>
<rect x="648" y="129" width="11" height="11" rx="2" fill="#330b0b"/>
<rect x="661" y="129" width="11" height="11" rx="2" fill="#4e1111"/>
<rect x="674" y="129" width="11" height="11" rx="2" fill="#812222"/>
<rect x="687" y="129" width="11" height="11" rx="2" fill="#b43434"/>
<rect x="700" y="129" width="11" height="11" rx="2" fill="#e84545"/>
<text x="715" y="139" dominant-baseline="middle">More</text>
</svg>